<?xml version="1.0" encoding="UTF-8"?>
<svg width="736px" height="849px" viewBox="0 0 736 849" version="1.1" xmlns="http://www.w3.org/2000/svg" xmlns:xlink="http://www.w3.org/1999/xlink">
    <defs></defs>
    <g id="edr" stroke="none" stroke-width="1" fill="none" fill-rule="evenodd">
        <g id="edr_hex_logo">
            <polygon id="hex_outside" fill="#4A4A4A" points="706.337612 195.45 428.537612 35.05 368.237612 0.25 307.937612 35.05 30.1376121 195.45 0.837612102 212.35 0.837612102 636.65 30.1376121 653.55 311.337612 815.95 368.237612 848.75 425.137612 815.95 706.337612 653.55 735.637612 636.65 735.637612 212.35"></polygon>
            <polygon id="hex_inside" fill="#EDE0DF" points="725.944024 632.072543 368.237612 838.592187 10.5312 632.072543 10.5312 218.927457 368.237612 12.4078125 725.944024 218.927457"></polygon>
            <path d="M256.459939,373 C264.463044,373 308.682176,380.133762 306.960197,420.957402 C305.238218,461.781042 271.56472,486.999885 238.805806,486.999885 C238.805806,495.951509 244.641961,524.786201 265.763363,524.116947 C271.722796,524.116947 277.242214,524.116947 282.321618,524.116947 C282.365667,526.130444 282.365667,534.758128 282.321618,550 C274.620418,549.720284 244.121732,551.02639 234.344384,544.968124 C224.567035,538.909857 198.031681,524.055667 194.329571,476.258084 C191.742442,433.882849 198.062673,407.615195 214.771239,390.30892 C231.479805,373.002644 248.456834,373 256.459939,373 Z M236.364831,462.136454 C255.095481,456.434591 265.134067,445.744715 266.480589,430.066825 C268.500371,406.549992 263.696685,395.800907 252.945269,398.706579 C239.833879,402.911479 234.307067,424.054771 236.364831,462.136454 Z" id="Combined-Shape" fill="#802622"></path>
            <g id="Group" transform="translate(311.723240, 290.000000)" fill="#802622">
                <path d="M78.417835,252.506613 C74.4071601,258.544219 65.4631232,262.143673 54.3816716,262.143673 C22.7742791,262.143673 0.633518509,221.659212 0.633518509,181.982201 C0.633518509,142.30519 17.0227372,97.8346657 76.9840786,86.1502273 C77.0691484,86.1502273 77.1494765,86.1502273 77.2250628,86.1502273 L76.6109209,0.495629352 L117.757348,0.495629352 L117.757348,260 L78.4715624,260 L78.417835,252.506613 Z M78.5471663,114.984255 C48.5664956,122.937766 42.2435189,152.749744 42.2435189,179.757594 C42.2435189,206.765445 47.8266509,233.828209 63.6303471,233.828209 C71.1162607,234.034627 78.3741284,226.728216 80.0320766,221.87003 C80.1043322,219.470273 80.1265011,205.595222 80.0985833,170.244876 C80.0903455,159.813924 80.0681766,141.393717 80.0320766,114.984255 C79.5727991,114.984255 79.077829,114.984255 78.5471663,114.984255 Z" id="Combined-Shape"></path>
                <polygon id="Path-4" points="76.6109209 0.495629352 117.757348 0.495629352 117.757348 260 78.4715624 260"></polygon>
            </g>
            <path d="M454.889881,377.146888 L492.051819,377.146888 C492.180006,378.625218 492.205683,382.621744 492.128848,389.136465 C500.02657,374.411602 523.100275,375.859969 531.815814,375.849689 C532.073949,381.188326 532.267036,402.156745 532.223359,406.321604 C522.089887,406.321604 500.665678,405.023384 495.113259,428.123737 C495.04216,428.419539 494.391858,469.04496 493.162354,550 L454.889881,550 L454.889881,377.146888 Z" id="Path-6" fill="#802622"></path>
        </g>
    </g>
</svg>
